<svg width="79" height="74" viewBox="0 0 79 74" fill="none" xmlns="http://www.w3.org/2000/svg">
<g clip-path="url(#clip0)">
<path d="M52.5631 66.5999C67.1639 66.5999 79.0001 56.779 79.0001 44.6642C79.0001 32.5495 67.1639 22.7285 52.5631 22.7285C37.9623 22.7285 26.126 32.5495 26.126 44.6642C26.126 56.779 37.9623 66.5999 52.5631 66.5999Z" fill="#F5F1F0" fill-opacity="0.81"/>
<path d="M26.4371 43.8714C41.0379 43.8714 52.8742 34.0505 52.8742 21.9357C52.8742 9.82096 41.0379 0 26.4371 0C11.8363 0 0 9.82096 0 21.9357C0 34.0505 11.8363 43.8714 26.4371 43.8714Z" fill="#E4C722"/>
<path d="M49.5782 55.9917L48.9997 53.518C47.4144 52.9894 45.7862 52.408 44.1151 51.7737C44.0937 51.7737 44.083 51.7842 44.083 51.8054C44.1044 52.2494 45.9361 53.6448 49.5782 55.9917ZM52.3097 54.5645C52.7382 56.4251 53.006 57.6302 53.1131 58.18C58.2119 61.2457 61.4791 62.7891 62.9144 62.8102L61.1791 56.6894C58.3083 56.1397 55.3519 55.4314 52.3097 54.5645ZM49.8674 38.3585L49.7389 40.3882C49.7389 42.3545 50.4137 46.2554 51.7634 52.0908C54.5485 52.9365 57.4728 53.666 60.5364 54.2791C59.658 51.002 59.0153 48.1794 58.6083 45.8114C58.2012 43.4222 57.9977 40.8745 57.9977 38.1682C58.0405 37.9357 58.4583 37.5657 59.251 37.0582C60.0651 36.5297 60.6435 36.2654 60.9863 36.2654C61.1577 36.2654 61.2434 36.3817 61.2434 36.6142L61.0827 38.8342C61.0827 42.2594 61.9825 47.5874 63.7821 54.8182C66.3101 55.1988 68.6667 55.4208 70.8519 55.4842C71.0018 55.4842 71.0768 55.5582 71.0768 55.7062C71.0768 55.8331 70.6055 56.1502 69.6629 56.6577C68.7202 57.1651 68.1632 57.4188 67.9918 57.4188C66.9849 57.4188 65.7852 57.3342 64.3927 57.1651L65.646 61.6051C65.646 61.9645 64.8854 62.5777 63.3643 63.4445C61.6504 63.4445 58.2869 61.9751 53.2738 59.0362C53.488 60.2202 53.6165 61.2562 53.6594 62.1442C53.6165 62.1865 53.1881 62.398 52.374 62.7785C51.5599 63.1591 51.0993 63.3494 50.9921 63.3494C50.7136 63.3494 50.5744 63.1485 50.5744 62.7468C50.3816 60.7382 50.1031 58.7825 49.7389 56.8797C47.5536 55.4842 45.6898 54.2157 44.1473 53.074C42.6048 51.9111 41.8335 51.2028 41.8335 50.9491C41.8335 50.6108 42.5405 50.0294 43.9544 49.2048L44.0508 49.1414C45.5077 49.818 46.9431 50.41 48.357 50.9174C47.1359 46.3294 46.5253 43.2108 46.5253 41.5617C46.5253 40.8217 46.611 40.2402 46.7824 39.8174C46.8252 39.754 47.2965 39.458 48.1963 38.9294C49.0961 38.4008 49.6103 38.1365 49.7389 38.1365C49.8245 38.1365 49.8674 38.2105 49.8674 38.3585Z" fill="black"/>
<path d="M19.2725 13.3993C19.2725 15.429 20.4936 17.3213 22.9359 19.0761C24.0714 16.2007 24.6391 13.9173 24.6391 12.2258C24.6391 11.4858 24.3928 10.7987 23.9 10.1644C23.4073 9.53013 22.8503 9.21298 22.229 9.21298C21.6291 9.21298 21.0828 9.53013 20.59 10.1644C20.1187 10.7987 19.7759 11.433 19.5617 12.0673C19.3689 12.6804 19.2725 13.1244 19.2725 13.3993ZM15.0949 34.077C14.9449 34.225 14.8164 34.299 14.7092 34.299C14.5378 34.299 14.4521 34.2144 14.4521 34.0453C14.4521 33.8761 14.495 33.7387 14.5807 33.633C15.5448 32.5758 16.6802 30.9796 17.9871 28.8441C19.2939 26.7087 20.4936 24.4887 21.5862 22.1841C18.844 20.3024 17.4729 18.3784 17.4729 16.4121C17.4729 15.1013 17.7835 13.7693 18.4048 12.4161C19.0475 11.063 19.8938 9.94241 20.9435 9.05441C22.0147 8.16641 23.0324 7.72241 23.9964 7.72241C24.9819 7.72241 25.646 7.95498 25.9888 8.42013C26.353 8.86413 26.5351 9.51956 26.5351 10.3864C26.5351 12.0144 25.5389 15.059 23.5465 19.5201C24.2535 19.9853 25.1961 20.5561 26.3745 21.2327C27.5742 21.8881 28.5918 22.459 29.4273 22.9453C30.2843 23.4316 31.1412 23.9918 31.9982 24.6261C33.7549 25.9581 34.6334 27.4064 34.6334 28.971C34.6334 30.5144 33.8193 31.9627 32.1911 33.3158C30.5629 34.6478 28.9132 35.3138 27.2421 35.3138C24.607 35.3138 22.2611 33.9607 20.2044 31.2544C19.9688 30.9373 19.8509 30.673 19.8509 30.4616C19.8509 30.229 20.1187 29.9013 20.6543 29.4784C21.1899 29.0344 21.6077 28.8124 21.9076 28.8124C21.9719 28.8124 22.0254 28.8441 22.0683 28.9076C22.6467 29.9013 23.6858 30.9584 25.1854 32.079C26.6851 33.1996 28.1526 33.7598 29.588 33.7598C31.3662 33.633 32.2553 32.7661 32.2553 31.1593C32.2553 29.8061 31.4733 28.5376 29.9094 27.3536C28.7525 26.4867 27.3278 25.5776 25.6353 24.6261C23.9429 23.6536 22.7753 22.9558 22.1326 22.533C19.5403 27.9033 17.1944 31.7513 15.0949 34.077Z" fill="black"/>
</g>
<defs>
<clipPath id="clip0">
<rect width="79" height="74" fill="white"/>
</clipPath>
</defs>
</svg>
